<svg width="32" height="13" viewBox="0 0 32 13" fill="none" xmlns="http://www.w3.org/2000/svg">
<path d="M10.5954 6.54545C10.5954 7.69602 10.3877 8.69034 9.97217 9.52841C9.55669 10.3665 8.98673 11.0128 8.2623 11.4673C7.53786 11.9219 6.71045 12.1491 5.78005 12.1491C4.84965 12.1491 4.02224 11.9219 3.29781 11.4673C2.57338 11.0128 2.00342 10.3665 1.58794 9.52841C1.17245 8.69034 0.964711 7.69602 0.964711 6.54545C0.964711 5.39489 1.17245 4.40057 1.58794 3.5625C2.00342 2.72443 2.57338 2.07812 3.29781 1.62358C4.02224 1.16903 4.84965 0.941761 5.78005 0.941761C6.71045 0.941761 7.53786 1.16903 8.2623 1.62358C8.98673 2.07812 9.55669 2.72443 9.97217 3.5625C10.3877 4.40057 10.5954 5.39489 10.5954 6.54545ZM9.31698 6.54545C9.31698 5.60085 9.15896 4.80362 8.84291 4.15376C8.53041 3.50391 8.10605 3.01207 7.56982 2.67827C7.03715 2.34446 6.44056 2.17756 5.78005 2.17756C5.11954 2.17756 4.52117 2.34446 3.98495 2.67827C3.45228 3.01207 3.02792 3.50391 2.71187 4.15376C2.39937 4.80362 2.24312 5.60085 2.24312 6.54545C2.24312 7.49006 2.39937 8.28729 2.71187 8.93714C3.02792 9.587 3.45228 10.0788 3.98495 10.4126C4.52117 10.7464 5.11954 10.9134 5.78005 10.9134C6.44056 10.9134 7.03715 10.7464 7.56982 10.4126C8.10605 10.0788 8.53041 9.587 8.84291 8.93714C9.15896 8.28729 9.31698 7.49006 9.31698 6.54545ZM12.8166 12V1.09091H16.5027C17.3585 1.09091 18.0581 1.24538 18.6014 1.55433C19.1483 1.85973 19.5531 2.27344 19.8159 2.79545C20.0787 3.31747 20.2101 3.89986 20.2101 4.54261C20.2101 5.18537 20.0787 5.76953 19.8159 6.2951C19.5567 6.82067 19.1554 7.2397 18.6121 7.5522C18.0688 7.86115 17.3727 8.01562 16.524 8.01562H13.882V6.84375H16.4814C17.0673 6.84375 17.5379 6.74254 17.893 6.54013C18.2481 6.33771 18.5055 6.06428 18.6653 5.71982C18.8287 5.3718 18.9104 4.9794 18.9104 4.54261C18.9104 4.10582 18.8287 3.7152 18.6653 3.37074C18.5055 3.02628 18.2463 2.75639 17.8877 2.56108C17.529 2.36222 17.0531 2.26278 16.4601 2.26278H14.1377V12H12.8166ZM31.1165 4.5H29.7955C29.7174 4.12003 29.5807 3.78622 29.3853 3.49858C29.1936 3.21094 28.9592 2.96946 28.6822 2.77415C28.4088 2.57528 28.1052 2.42614 27.7714 2.3267C27.4375 2.22727 27.0895 2.17756 26.7273 2.17756C26.0668 2.17756 25.4684 2.34446 24.9322 2.67827C24.3995 3.01207 23.9752 3.50391 23.6591 4.15376C23.3466 4.80362 23.1904 5.60085 23.1904 6.54545C23.1904 7.49006 23.3466 8.28729 23.6591 8.93714C23.9752 9.587 24.3995 10.0788 24.9322 10.4126C25.4684 10.7464 26.0668 10.9134 26.7273 10.9134C27.0895 10.9134 27.4375 10.8636 27.7714 10.7642C28.1052 10.6648 28.4088 10.5174 28.6822 10.3221C28.9592 10.1232 29.1936 9.87997 29.3853 9.59233C29.5807 9.30114 29.7174 8.96733 29.7955 8.59091H31.1165C31.0171 9.14844 30.836 9.64737 30.5732 10.0877C30.3104 10.5281 29.9837 10.9027 29.5931 11.2116C29.2025 11.517 28.7639 11.7496 28.2774 11.9094C27.7944 12.0692 27.2777 12.1491 26.7273 12.1491C25.7969 12.1491 24.9695 11.9219 24.2451 11.4673C23.5206 11.0128 22.9507 10.3665 22.5352 9.52841C22.1197 8.69034 21.912 7.69602 21.912 6.54545C21.912 5.39489 22.1197 4.40057 22.5352 3.5625C22.9507 2.72443 23.5206 2.07812 24.2451 1.62358C24.9695 1.16903 25.7969 0.941761 26.7273 0.941761C27.2777 0.941761 27.7944 1.02166 28.2774 1.18146C28.7639 1.34126 29.2025 1.57564 29.5931 1.88459C29.9837 2.18999 30.3104 2.56285 30.5732 3.0032C30.836 3.43999 31.0171 3.93892 31.1165 4.5Z" fill="#2284FF"/>
</svg>
